<?xml version="1.0" encoding="UTF-8"?>
<svg id="Capa_1" data-name="Capa 1" xmlns="http://www.w3.org/2000/svg" version="1.1" viewBox="0 0 841.9 595.3">
  <defs>
    <style>
      .cls-1 {
        fill: #0d1e40;
        fill-rule: evenodd;
        stroke-width: 0px;
      }
    </style>
  </defs>
  <path class="cls-1" d="M447.4,88.6c6.6,7.1,10,15.8,10,25.8v48.3h40.8v15c0,10.8-3.3,19.5-10,26.3-6.6,6.8-14.6,10.2-23.9,10.2h-7v159c0,12.2,6.6,18.2,19.9,18.2h19.4c35.6-64.1,69.3-135.8,69.3-176.9,0-70.8-58.3-129-132.1-135.2,5,1.6,9.5,4.7,13.6,9.2Z"/>
  <path class="cls-1" d="M427,446.3c-25.6-2.2-38.3-19.7-38.3-52.7V82.2c-64.4,13.8-112.7,68-112.7,132.4s74.9,189.4,119.3,260.2c10.4,17.3,19.4,31.8,25.7,41.1,6.2-9.3,15.3-23.8,26.4-41.1,5.1-8.2,10.6-17,16.4-26.6-11.9-.2-24.1-.9-36.8-1.8Z"/>
</svg>