<?xml version="1.0" encoding="UTF-8"?>
<svg id="Capa_2" data-name="Capa 2" xmlns="http://www.w3.org/2000/svg" viewBox="0 0 395.26 500">
  <defs>
    <style>
      .cls-1 {
        fill: #0d1e40;
      }

      .cls-1, .cls-2 {
        stroke-width: 0px;
      }

      .cls-2 {
        fill: #03a6a6;
      }
    </style>
  </defs>
  <g id="Capa_1-2" data-name="Capa 1">
    <g>
      <g>
        <path class="cls-1" d="M193.29,426.11c-49.88-2.48-74.8-22.77-74.8-60.87V0h-47.77v365.24c0,38.11,24.92,58.39,74.8,60.87,25.35,1.26,49.79,1.99,73.31,2.18,3.39.03,6.69-.29,9.93-.76-11.63-.36-23.43-.82-35.47-1.42Z"/>
        <g>
          <path class="cls-2" d="M197.11,42.24v55.9h47.77v-55.9c0-11.59-6.5-21.52-19.43-29.82-12.97-8.27-27.87-12.42-44.69-12.42h-47.77c16.82,0,31.72,4.15,44.69,12.42,12.93,8.29,19.43,18.23,19.43,29.82Z"/>
          <path class="cls-2" d="M258.48,157.77c18.12,0,33.66-3.92,46.63-11.8,12.93-7.86,19.43-18.01,19.43-30.44v-17.39h-47.77v17.39c0,12.42-6.5,22.58-19.43,30.44-12.97,7.88-28.51,11.8-46.63,11.8h-13.6v183.86c0,14.09,12.93,21.12,38.86,21.12h40.8c0,32.84-24.17,60.16-55.68,64.78,12.85.4,25.49.66,37.84.76,36.23.29,65.61-29.31,65.61-65.54h0s-40.8,0-40.8,0c-25.93,0-38.86-7.03-38.86-21.12v-183.86h13.6Z"/>
        </g>
      </g>
      <g>
        <g>
          <path class="cls-1" d="M0,499.26v-45.34c0-1.47.52-2.72,1.55-3.75s2.28-1.55,3.75-1.55h5.15v41.22h24.73v9.42H0Z"/>
          <path class="cls-1" d="M41.45,448.63h5.3c1.37,0,2.55.49,3.53,1.47.98.98,1.47,2.16,1.47,3.53v3.09h-10.3v-8.1ZM41.45,460.11h5.3c1.37,0,2.55.49,3.53,1.47.98.98,1.47,2.16,1.47,3.53v34.15h-10.3v-39.16Z"/>
          <path class="cls-1" d="M90.12,499.26h-5.15c-1.47,0-2.68-.46-3.61-1.4-.93-.93-1.4-2.13-1.4-3.61v-20.02c0-2.36-.71-4.07-2.13-5.15-1.42-1.08-3.02-1.62-4.78-1.62s-3.34.54-4.71,1.62c-1.38,1.08-2.06,2.8-2.06,5.15v25.02h-10.3v-22.96c0-6.67,1.74-11.14,5.23-13.4,3.48-2.26,7.33-3.48,11.56-3.68,4.32,0,8.29,1.13,11.92,3.39,3.63,2.26,5.45,6.82,5.45,13.69v22.96Z"/>
          <path class="cls-1" d="M105.81,460.11v14.43l12.51-14.43h12.37l-13.98,15.01,14.13,24.14h-12.37l-7.21-13.25c-1.47-2.65-2.75-3.78-3.83-3.39-1.08.39-1.62.98-1.62,1.77v14.87h-10.3v-50.64h5.3c1.37,0,2.55.49,3.53,1.47.98.98,1.47,2.11,1.47,3.39v6.62Z"/>
          <path class="cls-1" d="M163.6,487.19h7.36c-1.08,4.12-3.14,7.26-6.18,9.42-3.04,2.26-6.87,3.39-11.48,3.39-5.59,0-9.96-1.81-13.1-5.45-3.14-3.53-4.71-8.59-4.71-15.16s1.52-11.19,4.56-14.72c3.14-3.63,7.51-5.45,13.1-5.45,5.89,0,10.45,1.77,13.69,5.3,3.14,3.63,4.71,8.69,4.71,15.16v1.62c0,.49-.05.84-.15,1.03h-25.47c.1,3.04.83,5.3,2.21,6.77,1.27,1.57,3.19,2.36,5.74,2.36,1.67,0,3.09-.34,4.27-1.03.29-.1.56-.27.81-.52l.81-.81c.1-.29.46-.69,1.1-1.18.64-.49,1.55-.74,2.72-.74ZM145.94,475.71h15.01c-.2-2.65-.88-4.61-2.06-5.89-1.28-1.37-3.09-2.06-5.45-2.06-2.16,0-3.93.69-5.3,2.06s-2.11,3.34-2.21,5.89Z"/>
          <path class="cls-1" d="M181.8,495.73c-2.06-1.77-3.53-4.14-4.42-7.14-.88-2.99-1.32-6.11-1.32-9.35,0-2.65.37-5.3,1.1-7.95s1.89-4.86,3.46-6.62c2.55-2.94,5.84-4.69,9.86-5.23,4.02-.54,7.65-.22,10.89.96,3.73,1.47,6.48,4.03,8.24,7.65,1.67,3.24,2.5,7.02,2.5,11.33,0,3.14-.35,5.84-1.03,8.1-.69,2.26-1.57,4.17-2.65,5.74-2.36,3.24-5.35,5.25-8.98,6.04-3.24.88-6.5.96-9.79.22-3.29-.74-5.91-1.99-7.88-3.75ZM188.86,469.82c-2.06,2.26-2.99,5.62-2.8,10.08.2,4.47,1.03,7.58,2.5,9.35.59.79,1.62,1.45,3.09,1.99,1.47.54,2.97.59,4.49.15,1.52-.44,2.87-1.55,4.05-3.31s1.81-4.61,1.91-8.54c0-3.53-.57-6.18-1.69-7.95-1.13-1.77-2.43-2.89-3.9-3.39-1.47-.49-2.94-.52-4.42-.07s-2.55,1.01-3.24,1.69Z"/>
        </g>
        <g>
          <path class="cls-2" d="M247.2,499.26v-41.66h-15.01v-3.68c0-1.47.52-2.72,1.55-3.75s2.28-1.55,3.75-1.55h35.03v8.98h-14.87v41.66h-10.45Z"/>
          <path class="cls-2" d="M305.43,487.19h7.36c-1.08,4.12-3.14,7.26-6.18,9.42-3.04,2.26-6.87,3.39-11.48,3.39-5.59,0-9.96-1.81-13.1-5.45-3.14-3.53-4.71-8.59-4.71-15.16s1.52-11.19,4.56-14.72c3.14-3.63,7.51-5.45,13.1-5.45,5.89,0,10.45,1.77,13.69,5.3,3.14,3.63,4.71,8.69,4.71,15.16v1.62c0,.49-.05.84-.15,1.03h-25.47c.1,3.04.83,5.3,2.21,6.77,1.27,1.57,3.19,2.36,5.74,2.36,1.67,0,3.09-.34,4.27-1.03.29-.1.56-.27.81-.52l.81-.81c.1-.29.46-.69,1.1-1.18.64-.49,1.55-.74,2.72-.74ZM287.77,475.71h15.01c-.2-2.65-.88-4.61-2.06-5.89-1.28-1.37-3.09-2.06-5.45-2.06-2.16,0-3.93.69-5.3,2.06s-2.11,3.34-2.21,5.89Z"/>
          <path class="cls-2" d="M346,487.19h7.36c-1.08,4.12-3.14,7.26-6.18,9.42-3.04,2.26-6.87,3.39-11.48,3.39-5.59,0-9.96-1.81-13.1-5.45-3.14-3.53-4.71-8.59-4.71-15.16s1.52-11.19,4.56-14.72c3.14-3.63,7.51-5.45,13.1-5.45,5.89,0,10.45,1.77,13.69,5.3,1.77,2.16,3.04,4.66,3.83,7.51h-10.3c-.49-.98-.98-1.72-1.47-2.21-1.28-1.37-3.09-2.06-5.45-2.06-2.16,0-3.93.69-5.3,2.06-1.77,1.96-2.65,5.2-2.65,9.72s.88,7.71,2.65,9.57c1.27,1.57,3.19,2.36,5.74,2.36,1.67,0,3.09-.34,4.27-1.03.29-.1.56-.27.81-.52l.81-.81c.2-.29.59-.69,1.18-1.18.59-.49,1.47-.74,2.65-.74Z"/>
          <path class="cls-2" d="M383.33,471.15c-1.47-2.06-3.48-3.09-6.04-3.09-2.75,0-4.86.98-6.33,2.94-1.47,1.96-2.21,4.66-2.21,8.1v20.17h-10.01v-50.64h5c1.37,0,2.55.49,3.53,1.47.98.98,1.47,2.16,1.47,3.53v11.63c1.77-2.94,4.27-4.81,7.51-5.59,3.24-.78,6.33-.59,9.27.59,2.75,1.18,5.05,3.04,6.92,5.59,1.86,2.55,2.8,6.09,2.8,10.6v22.82h-9.86v-20.31c0-1.47-.12-2.82-.37-4.05-.25-1.23-.81-2.48-1.69-3.75Z"/>
        </g>
      </g>
    </g>
  </g>
</svg>