<?xml version="1.0" encoding="UTF-8"?>
<svg id="Capa_2" data-name="Capa 2" xmlns="http://www.w3.org/2000/svg" viewBox="0 0 534 121.85">
  <defs>
    <style>
      .cls-1, .cls-2 {
        fill: #fff;
      }

      .cls-2 {
        fill-rule: evenodd;
      }
    </style>
  </defs>
  <g id="Capa_1-2" data-name="Capa 1">
    <g>
      <g>
        <g>
          <path class="cls-1" d="M111.4,81.36c-4.48.27-9.34.2-14.56-.2-5.23-.41-7.84-3.73-7.84-9.98V11.29h7.33c1.76,0,3.32.68,4.68,2.04,1.36,1.36,2.04,2.99,2.04,4.89v9.17h8.35v2.85c0,2.04-.68,3.7-2.04,4.99-1.36,1.29-2.99,1.94-4.89,1.94h-1.43v30.14c0,2.31,1.35,3.46,4.07,3.46h4.28v10.59Z"/>
          <path class="cls-1" d="M115.67,81.36v-26.27c0-5.29.78-9.74,2.34-13.34,1.56-3.6,3.7-6.48,6.42-8.65,2.58-2.04,5.6-3.53,9.06-4.48,3.46-.95,7.03-1.43,10.69-1.43h2.04v14.46h-4.68c-3.94,0-6.86.95-8.76,2.85-1.9,1.9-2.85,4.89-2.85,8.96v27.9h-14.26Z"/>
          <path class="cls-1" d="M185.32,79.11c-2.85,1.5-5.87,2.41-9.06,2.75-3.19.34-6.01.51-8.45.51-4.89,0-9.17-1.32-12.83-3.97-3.67-2.65-5.5-7.03-5.5-13.14,0-5.7,1.66-9.78,4.99-12.22,3.32-2.44,7.57-4.07,12.73-4.89.68,0,1.49-.1,2.44-.31.95-.2,2.04-.37,3.26-.51,5.97-.81,8.96-2.58,8.96-5.29,0-2.04-1.05-3.36-3.16-3.97-2.11-.61-4.04-.92-5.8-.92-1.9,0-3.6.27-5.09.81-1.5.55-2.58,1.56-3.26,3.06h-13.65c.54-4.21,2.44-7.67,5.7-10.39,3.67-3.12,8.89-4.68,15.68-4.68,7.6,0,13.31,1.29,17.11,3.87,3.94,2.72,5.91,6.52,5.91,11.4v18.53c0,5.43-.99,9.67-2.95,12.73-1.97,3.06-4.31,5.26-7.03,6.62ZM182.06,54.06c-1.9.95-4.55,1.83-7.94,2.65l-4.68,1.02c-2.44.68-4.21,1.56-5.3,2.65-.95,1.49-1.43,2.99-1.43,4.48,0,2.04.61,3.67,1.83,4.89,1.22,1.09,2.99,1.63,5.3,1.63,3.8,0,6.79-1.08,8.96-3.26,2.17-2.17,3.26-5.16,3.26-8.96v-5.09Z"/>
          <path class="cls-1" d="M229.21,81.36h-14.46l-18.94-54.17h15.07l10.79,38.08,9.57-33.2c1.08-3.26,3.26-4.89,6.52-4.89h10.59l-19.14,54.17Z"/>
          <path class="cls-1" d="M285.43,64.66h10.18c-1.49,5.7-4.35,10.05-8.55,13.03-4.21,3.13-9.51,4.68-15.89,4.68-7.74,0-13.78-2.51-18.13-7.54-4.35-4.89-6.52-11.88-6.52-20.98s2.1-15.48,6.31-20.37c4.34-5.02,10.39-7.53,18.13-7.53,8.15,0,14.46,2.44,18.94,7.33,4.34,5.02,6.52,12.02,6.52,20.98v2.24c0,.68-.07,1.16-.2,1.43h-35.23c.13,4.21,1.15,7.33,3.05,9.37,1.76,2.17,4.41,3.26,7.94,3.26,2.31,0,4.28-.47,5.91-1.42.41-.13.78-.37,1.12-.71s.71-.71,1.12-1.12c.13-.41.64-.95,1.53-1.63.88-.68,2.14-1.02,3.77-1.02ZM260.99,48.77h20.77c-.27-3.67-1.22-6.38-2.85-8.15-1.77-1.9-4.28-2.85-7.54-2.85-2.99,0-5.43.95-7.33,2.85-1.9,1.9-2.92,4.62-3.05,8.15Z"/>
          <path class="cls-1" d="M300.8,11.29h7.33c1.9,0,3.53.65,4.89,1.94,1.36,1.29,2.04,2.89,2.04,4.79v63.34h-14.26V11.29Z"/>
          <path class="cls-1" d="M318.96,11.25l7.33.05c1.9.01,3.52.7,4.87,2.07,1.35,1.37,2.02,3,2,4.9l-.03,4.28-14.26-.09.07-11.2ZM318.86,27.13l7.33.05c1.9.01,3.52.7,4.87,2.07,1.35,1.37,2.02,3,2,4.9l-.31,47.25-14.26-.09.36-54.17Z"/>
          <path class="cls-1" d="M383.89,81.36h-7.13c-2.04,0-3.7-.64-4.99-1.94-1.29-1.29-1.94-2.95-1.94-4.99v-27.7c0-3.26-.99-5.63-2.95-7.13-1.97-1.49-4.17-2.24-6.62-2.24s-4.62.75-6.52,2.24c-1.9,1.5-2.85,3.87-2.85,7.13v34.62h-14.26v-31.77c0-9.23,2.41-15.41,7.23-18.53,4.82-3.12,10.15-4.82,15.99-5.09,5.97,0,11.47,1.56,16.5,4.68,5.02,3.13,7.54,9.44,7.54,18.94v31.77Z"/>
          <path class="cls-1" d="M401.91,27.18v19.96l17.31-19.96h17.11l-19.35,20.77,19.55,33.4h-17.11l-9.98-18.33c-2.04-3.67-3.8-5.23-5.3-4.69-1.49.54-2.24,1.36-2.24,2.44v20.57h-14.26V11.29h7.33c1.9,0,3.53.68,4.89,2.04,1.36,1.36,2.04,2.92,2.04,4.68v9.17Z"/>
          <path class="cls-1" d="M469.04,64.66h10.18c-1.49,5.7-4.35,10.05-8.55,13.03-4.21,3.13-9.51,4.68-15.89,4.68-7.74,0-13.78-2.51-18.13-7.54-4.35-4.89-6.52-11.88-6.52-20.98s2.1-15.48,6.31-20.37c4.34-5.02,10.39-7.53,18.13-7.53,8.15,0,14.46,2.44,18.94,7.33,4.34,5.02,6.52,12.02,6.52,20.98v2.24c0,.68-.07,1.16-.2,1.43h-35.23c.13,4.21,1.15,7.33,3.05,9.37,1.76,2.17,4.41,3.26,7.94,3.26,2.31,0,4.28-.47,5.91-1.42.41-.13.78-.37,1.12-.71s.71-.71,1.12-1.12c.13-.41.64-.95,1.53-1.63.88-.68,2.14-1.02,3.77-1.02ZM444.6,48.77h20.77c-.27-3.67-1.22-6.38-2.85-8.15-1.77-1.9-4.28-2.85-7.54-2.85-2.99,0-5.43.95-7.33,2.85-1.9,1.9-2.92,4.62-3.05,8.15Z"/>
          <path class="cls-1" d="M492.05,76.47c-2.85-2.44-4.89-5.73-6.11-9.88-1.22-4.14-1.83-8.45-1.83-12.93,0-3.67.51-7.33,1.53-11,1.02-3.67,2.61-6.72,4.79-9.17,3.53-4.07,8.08-6.48,13.65-7.23,5.57-.74,10.59-.3,15.07,1.32,5.16,2.04,8.96,5.57,11.4,10.59,2.31,4.48,3.46,9.71,3.46,15.68,0,4.35-.48,8.08-1.43,11.2-.95,3.13-2.17,5.77-3.67,7.94-3.26,4.48-7.4,7.27-12.42,8.35-4.48,1.22-9,1.32-13.54.31-4.55-1.02-8.18-2.75-10.9-5.19ZM501.82,40.62c-2.85,3.12-4.14,7.77-3.87,13.95.27,6.18,1.43,10.49,3.46,12.93.81,1.09,2.24,2,4.28,2.75,2.04.75,4.11.81,6.21.2,2.1-.61,3.97-2.14,5.6-4.58s2.51-6.38,2.65-11.81c0-4.89-.78-8.55-2.34-11-1.56-2.44-3.36-4-5.4-4.68-2.04-.68-4.07-.71-6.11-.1-2.04.61-3.53,1.4-4.48,2.34Z"/>
        </g>
        <g>
          <path class="cls-2" d="M41.09,2.04c1.59,1.59,2.39,3.5,2.39,5.73v10.74h9.79v3.34c0,2.39-.8,4.34-2.39,5.85-1.59,1.51-3.5,2.27-5.73,2.27h-1.67v35.34c0,2.71,1.59,4.06,4.78,4.06h4.65c8.53-14.25,16.62-30.2,16.62-39.32,0-15.72-13.98-28.68-31.67-30.05,1.17.38,2.24,1.06,3.23,2.04Z"/>
          <path class="cls-2" d="M36.2,81.55c-6.13-.48-9.19-4.38-9.19-11.7V.64C11.58,3.71,0,15.74,0,30.05c0,13.54,17.97,42.09,28.61,57.83,2.5,3.83,4.66,7.06,6.15,9.12,1.5-2.06,3.66-5.3,6.32-9.12,1.23-1.81,2.55-3.8,3.93-5.91-2.83-.04-5.77-.18-8.82-.42Z"/>
        </g>
      </g>
      <g>
        <path class="cls-1" d="M142.04,121.62v-32.57h2.84l14.89,25.41h-1.49l14.75-25.41h2.84v32.57h-3.3v-27.41h.79l-13.59,23.27h-1.63l-13.68-23.27h.88v27.41h-3.3Z"/>
        <path class="cls-1" d="M192.66,121.85c-1.83,0-3.42-.3-4.77-.91-1.35-.61-2.38-1.44-3.1-2.51-.71-1.07-1.07-2.3-1.07-3.7,0-1.27.3-2.43.91-3.46.61-1.04,1.6-1.88,2.98-2.51,1.38-.63,3.23-.95,5.56-.95h8.42v2.47h-8.33c-2.36,0-3.99.42-4.91,1.26-.91.84-1.37,1.87-1.37,3.12,0,1.39.54,2.51,1.63,3.35,1.09.84,2.61,1.25,4.56,1.25s3.47-.42,4.82-1.28c1.35-.85,2.33-2.08,2.95-3.7l.75,2.28c-.62,1.61-1.7,2.9-3.23,3.86-1.54.96-3.46,1.44-5.79,1.44ZM201.08,121.62v-5.4l-.14-.89v-9.03c0-2.08-.58-3.68-1.74-4.79-1.17-1.12-2.89-1.68-5.19-1.68-1.58,0-3.09.27-4.51.79-1.43.53-2.64,1.23-3.63,2.09l-1.49-2.47c1.24-1.06,2.73-1.87,4.47-2.44,1.73-.58,3.56-.86,5.49-.86,3.16,0,5.6.78,7.33,2.35,1.72,1.57,2.58,3.95,2.58,7.14v15.17h-3.17Z"/>
        <path class="cls-1" d="M213.23,121.62v-24.43h3.16v6.65l-.33-1.16c.68-1.86,1.83-3.28,3.44-4.26s3.62-1.47,6.01-1.47v3.21c-.12,0-.25,0-.37-.02s-.25-.02-.37-.02c-2.57,0-4.59.78-6.05,2.35-1.46,1.57-2.18,3.79-2.18,6.68v12.47h-3.3Z"/>
        <path class="cls-1" d="M241.42,121.85c-2.42,0-4.58-.53-6.49-1.6-1.91-1.07-3.4-2.54-4.49-4.42-1.09-1.87-1.63-4.03-1.63-6.44s.54-4.6,1.63-6.47c1.09-1.86,2.58-3.32,4.49-4.37,1.91-1.05,4.07-1.58,6.49-1.58,2.08,0,3.96.41,5.63,1.21,1.68.81,3,2.01,3.96,3.63l-2.47,1.68c-.84-1.24-1.87-2.16-3.12-2.75-1.24-.59-2.59-.89-4.05-.89-1.74,0-3.3.4-4.7,1.19-1.4.79-2.5,1.9-3.31,3.32s-1.21,3.1-1.21,5.02.4,3.6,1.21,5.02c.81,1.43,1.91,2.54,3.31,3.33s2.96,1.19,4.7,1.19c1.46,0,2.81-.29,4.05-.88s2.28-1.49,3.12-2.7l2.47,1.67c-.96,1.58-2.28,2.79-3.96,3.61-1.67.82-3.55,1.23-5.63,1.23Z"/>
        <path class="cls-1" d="M264.36,121.85c-1.83,0-3.42-.3-4.77-.91-1.35-.61-2.38-1.44-3.1-2.51-.71-1.07-1.07-2.3-1.07-3.7,0-1.27.3-2.43.91-3.46.61-1.04,1.6-1.88,2.98-2.51,1.38-.63,3.23-.95,5.56-.95h8.42v2.47h-8.33c-2.36,0-3.99.42-4.91,1.26-.91.84-1.37,1.87-1.37,3.12,0,1.39.54,2.51,1.63,3.35,1.09.84,2.61,1.25,4.56,1.25s3.47-.42,4.82-1.28c1.35-.85,2.33-2.08,2.95-3.7l.75,2.28c-.62,1.61-1.7,2.9-3.23,3.86-1.54.96-3.46,1.44-5.79,1.44ZM272.78,121.62v-5.4l-.14-.89v-9.03c0-2.08-.58-3.68-1.74-4.79-1.17-1.12-2.89-1.68-5.19-1.68-1.58,0-3.09.27-4.51.79-1.43.53-2.64,1.23-3.63,2.09l-1.49-2.47c1.24-1.06,2.73-1.87,4.47-2.44,1.73-.58,3.56-.86,5.49-.86,3.16,0,5.6.78,7.33,2.35,1.72,1.57,2.58,3.95,2.58,7.14v15.17h-3.17Z"/>
        <path class="cls-1" d="M293.3,99.94v-2.75h15.12v2.75h-15.12ZM304.84,121.85c-2.29,0-4.06-.62-5.31-1.86-1.24-1.24-1.86-3-1.86-5.26v-22.94h3.3v22.75c0,1.43.37,2.53,1.09,3.31.73.78,1.78,1.16,3.14,1.16,1.46,0,2.67-.42,3.63-1.26l1.16,2.37c-.65.59-1.44,1.02-2.35,1.3-.92.28-1.86.42-2.82.42Z"/>
        <path class="cls-1" d="M326.11,121.85c-2.08,0-3.89-.39-5.45-1.16-1.55-.77-2.75-1.94-3.6-3.49-.85-1.55-1.28-3.49-1.28-5.82v-14.19h3.31v13.82c0,2.61.64,4.57,1.93,5.89s3.1,1.98,5.42,1.98c1.7,0,3.19-.35,4.45-1.05,1.25-.7,2.22-1.72,2.88-3.05s1-2.93,1-4.79v-12.8h3.3v24.43h-3.17v-6.7l.51,1.21c-.78,1.8-1.98,3.2-3.61,4.21s-3.53,1.51-5.7,1.51Z"/>
        <path class="cls-1" d="M360.17,121.62v-32.57h13.26c3.47,0,6.52.69,9.14,2.07,2.62,1.38,4.66,3.3,6.12,5.75s2.19,5.27,2.19,8.47-.73,6.02-2.19,8.47-3.5,4.37-6.12,5.74c-2.62,1.38-5.67,2.07-9.14,2.07h-13.26ZM363.61,118.65h9.63c2.89,0,5.39-.57,7.51-1.7s3.78-2.7,4.96-4.7,1.77-4.31,1.77-6.91-.59-4.95-1.77-6.93c-1.18-1.98-2.83-3.54-4.96-4.68s-4.63-1.7-7.51-1.7h-9.63v26.62Z"/>
        <path class="cls-1" d="M408.28,121.85c-2.54,0-4.78-.53-6.7-1.6-1.92-1.07-3.43-2.54-4.51-4.42-1.09-1.87-1.63-4.03-1.63-6.44s.52-4.56,1.56-6.42c1.04-1.86,2.47-3.33,4.28-4.4,1.82-1.07,3.85-1.61,6.12-1.61s4.34.52,6.12,1.56c1.78,1.04,3.19,2.5,4.21,4.37,1.03,1.88,1.54,4.04,1.54,6.49,0,.16,0,.32-.02.49-.02.17-.03.35-.03.54h-21.26v-2.47h19.49l-1.3.98c0-1.77-.38-3.34-1.14-4.72-.76-1.38-1.79-2.46-3.09-3.23s-2.81-1.16-4.51-1.16-3.18.39-4.51,1.16-2.37,1.86-3.12,3.26c-.75,1.4-1.12,3-1.12,4.79v.51c0,1.86.41,3.5,1.23,4.91.82,1.41,1.97,2.51,3.44,3.3s3.16,1.19,5.05,1.19c1.49,0,2.88-.26,4.17-.79,1.29-.53,2.4-1.33,3.33-2.42l1.86,2.14c-1.09,1.3-2.44,2.29-4.07,2.98s-3.42,1.02-5.37,1.02Z"/>
        <path class="cls-1" d="M432.57,121.85c-2.01,0-3.92-.28-5.72-.86-1.8-.57-3.21-1.3-4.24-2.16l1.49-2.61c.99.74,2.26,1.39,3.81,1.93,1.55.54,3.18.81,4.89.81,2.33,0,4-.37,5.02-1.09,1.02-.73,1.53-1.7,1.53-2.91,0-.9-.29-1.61-.86-2.12-.58-.51-1.33-.9-2.26-1.16-.93-.27-1.97-.49-3.12-.68-1.15-.19-2.29-.4-3.42-.65-1.13-.25-2.16-.61-3.09-1.09s-1.68-1.14-2.26-1.98c-.57-.84-.86-1.95-.86-3.35s.37-2.53,1.12-3.59c.74-1.05,1.84-1.88,3.28-2.49s3.2-.91,5.28-.91c1.58,0,3.16.21,4.74.63,1.58.42,2.89.97,3.91,1.65l-1.44,2.65c-1.09-.75-2.25-1.28-3.49-1.61-1.24-.33-2.48-.49-3.72-.49-2.2,0-3.82.38-4.86,1.14-1.04.76-1.56,1.73-1.56,2.91,0,.93.29,1.66.86,2.19.58.53,1.34.94,2.28,1.23.94.3,1.98.53,3.12.72,1.13.19,2.26.41,3.4.67,1.13.26,2.17.62,3.12,1.07.95.45,1.71,1.09,2.28,1.91.58.82.86,1.9.86,3.23,0,1.43-.4,2.66-1.19,3.7-.79,1.04-1.94,1.85-3.44,2.42-1.5.58-3.33.86-5.47.86Z"/>
        <path class="cls-1" d="M444.9,99.94v-2.75h15.12v2.75h-15.12ZM456.43,121.85c-2.29,0-4.06-.62-5.31-1.86-1.24-1.24-1.86-3-1.86-5.26v-22.94h3.3v22.75c0,1.43.37,2.53,1.09,3.31.73.78,1.78,1.16,3.14,1.16,1.46,0,2.67-.42,3.63-1.26l1.16,2.37c-.65.59-1.44,1.02-2.35,1.3-.92.28-1.86.42-2.82.42Z"/>
        <path class="cls-1" d="M469.28,91.79c-.68,0-1.26-.23-1.72-.7s-.7-1.02-.7-1.67.23-1.2.7-1.65c.47-.45,1.04-.67,1.72-.67s1.26.22,1.72.65c.46.44.7.98.7,1.63,0,.69-.23,1.26-.67,1.72-.45.47-1.03.7-1.75.7ZM467.6,121.62v-24.43h3.3v24.43h-3.3Z"/>
        <path class="cls-1" d="M480.12,121.62v-24.43h3.16v6.7l-.51-1.26c.78-1.76,2.01-3.15,3.72-4.16,1.7-1.01,3.74-1.51,6.1-1.51,1.98,0,3.73.38,5.23,1.14,1.5.76,2.68,1.92,3.54,3.47s1.28,3.51,1.28,5.86v14.19h-3.31v-13.87c0-2.57-.64-4.52-1.93-5.84-1.29-1.32-3.1-1.98-5.42-1.98-1.74,0-3.25.35-4.54,1.05-1.29.7-2.28,1.71-2.98,3.03-.7,1.32-1.05,2.91-1.05,4.77v12.84h-3.3Z"/>
        <path class="cls-1" d="M521.53,121.85c-2.36,0-4.48-.53-6.35-1.6-1.88-1.07-3.36-2.54-4.45-4.42-1.09-1.87-1.63-4.03-1.63-6.44s.54-4.6,1.63-6.47c1.09-1.86,2.56-3.32,4.42-4.37,1.86-1.05,3.98-1.58,6.37-1.58s4.57.53,6.44,1.58c1.88,1.06,3.35,2.51,4.42,4.37,1.07,1.86,1.61,4.02,1.61,6.47s-.53,4.57-1.61,6.44c-1.07,1.88-2.55,3.35-4.44,4.42-1.89,1.07-4.03,1.6-6.42,1.6ZM521.53,118.92c1.77,0,3.34-.39,4.7-1.19,1.37-.79,2.44-1.91,3.23-3.35s1.19-3.11,1.19-5-.4-3.6-1.19-5.02-1.87-2.54-3.23-3.32c-1.36-.79-2.92-1.19-4.65-1.19s-3.29.4-4.65,1.19c-1.37.79-2.45,1.9-3.26,3.32s-1.21,3.1-1.21,5.02.4,3.56,1.21,5,1.89,2.56,3.26,3.35c1.36.79,2.9,1.19,4.6,1.19Z"/>
      </g>
    </g>
  </g>
</svg>